<?xml version="1.0" encoding="UTF-8"?>
<svg width="20px" height="20px" viewBox="0 0 20 20" version="1.1" xmlns="http://www.w3.org/2000/svg" xmlns:xlink="http://www.w3.org/1999/xlink">
    <title>Icons/icon-comment-m-grey2</title>
    <g id="Icons/icon-comment-m-grey2" stroke="none" stroke-width="1" fill="none" fill-rule="evenodd">
        <path d="M18,2 C19.1045695,2 20,2.87821068 20,3.96153846 L20,13.2788462 C20,14.3621739 19.1045695,15.2403846 18,15.2403846 L13.405,15.24 L10.6666667,18.6730769 C10.3571429,19.0778388 9.76020408,19.1067504 9.40962099,18.7598116 L9.33333333,18.6730769 L6.594,15.24 L2,15.2403846 C0.8954305,15.2403846 0,14.3621739 0,13.2788462 L0,3.96153846 C0,2.87821068 0.8954305,2 2,2 L18,2 Z M18,3.63461538 L2,3.63461538 L1.93282171,3.6412573 C1.78092733,3.67174166 1.66666667,3.80355316 1.66666667,3.96153846 L1.66666667,3.96153846 L1.66666667,13.2788462 L1.67343882,13.3447326 C1.7045209,13.4937059 1.83891695,13.6057692 2,13.6057692 L2,13.6057692 L7.17666667,13.6056154 L10,17.2064925 L12.8226667,13.6056154 L18,13.6057692 L18.0671783,13.5991273 C18.2190727,13.568643 18.3333333,13.4368315 18.3333333,13.2788462 L18.3333333,13.2788462 L18.3333333,3.96153846 L18.3265612,3.89565206 C18.2954791,3.74667873 18.1610831,3.63461538 18,3.63461538 L18,3.63461538 Z" id="Fill" fill="#888888"></path>
    </g>
</svg>