<?xml version="1.0" encoding="UTF-8"?>
<svg width="20px" height="20px" viewBox="0 0 20 20" version="1.1" xmlns="http://www.w3.org/2000/svg" xmlns:xlink="http://www.w3.org/1999/xlink">
    <title>Icons/icon-menu-m</title>
    <g id="Icons/icon-menu-m" stroke="none" stroke-width="1" fill="none" fill-rule="evenodd">
        <path d="M18.463956,2 C18.9326091,2 19.3125275,2.37991837 19.3125275,2.84857143 C19.3125275,3.28117425 18.98881,3.63816882 18.570399,3.69053128 L18.463956,3.69714286 L1.84857143,3.69714286 C1.37991837,3.69714286 1,3.31722449 1,2.84857143 C1,2.4159686 1.32371743,2.05897404 1.74212843,2.00661158 L1.84857143,2 L18.463956,2 Z M18.463956,16 C18.9326091,16 19.3125275,16.3799184 19.3125275,16.8485714 C19.3125275,17.2811743 18.98881,17.6381688 18.570399,17.6905313 L18.463956,17.6971429 L1.84857143,17.6971429 C1.37991837,17.6971429 1,17.3172245 1,16.8485714 C1,16.4159686 1.32371743,16.058974 1.74212843,16.0066116 L1.84857143,16 L18.463956,16 Z M18.463956,9 C18.9326091,9 19.3125275,9.37991837 19.3125275,9.84857143 C19.3125275,10.2811743 18.98881,10.6381688 18.570399,10.6905313 L18.463956,10.6971429 L1.84857143,10.6971429 C1.37991837,10.6971429 1,10.3172245 1,9.84857143 C1,9.4159686 1.32371743,9.05897404 1.74212843,9.00661158 L1.84857143,9 L18.463956,9 Z" id="Fill" fill="#444444"></path>
    </g>
</svg>