<?xml version="1.0" encoding="UTF-8"?>
<svg width="20px" height="20px" viewBox="0 0 20 20" version="1.1" xmlns="http://www.w3.org/2000/svg" xmlns:xlink="http://www.w3.org/1999/xlink">
    <title>Icons/icon-mic-m</title>
    <g id="Icons/icon-mic-m" stroke="none" stroke-width="1" fill="none" fill-rule="evenodd">
        <path d="M10,0 C8.06700338,0 6.5,1.56700338 6.5,3.5 L6.5,10.5 C6.5,12.4329966 8.06700338,14 10,14 C11.9329966,14 13.5,12.4329966 13.5,10.5 L13.5,3.5 C13.5,1.56700338 11.9329966,0 10,0 Z M15.3534483,10 C15.7676618,10 16.1034483,10.3357864 16.1034483,10.75 C16.1034483,13.9668143 13.8020299,16.2824844 10.7507533,16.5901317 L10.75,18.5 L13.125,18.5 C13.5392136,18.5 13.875,18.8357864 13.875,19.25 C13.875,19.6296958 13.5928461,19.943491 13.2267706,19.9931534 L13.125,20 L6.875,20 C6.46078644,20 6.125,19.6642136 6.125,19.25 C6.125,18.8703042 6.40715388,18.556509 6.77322944,18.5068466 L6.875,18.5 L9.25,18.5 L9.25014816,16.5790048 C6.25000115,16.2303428 4,13.930677 4,10.75 C4,10.3357864 4.33578644,10 4.75,10 C5.16421356,10 5.5,10.3357864 5.5,10.75 C5.5,13.3460364 7.45789138,15.125 10.0517241,15.125 C12.6455569,15.125 14.6034483,13.3460364 14.6034483,10.75 C14.6034483,10.3357864 14.9392347,10 15.3534483,10 Z M10,1.5 C11.1045695,1.5 12,2.3954305 12,3.5 L12,10.5 C12,11.6045695 11.1045695,12.5 10,12.5 C8.8954305,12.5 8,11.6045695 8,10.5 L8,3.5 C8,2.3954305 8.8954305,1.5 10,1.5 Z" id="Fill" fill="#444444"></path>
    </g>
</svg>