<?xml version="1.0" encoding="UTF-8"?>
<svg width="20px" height="20px" viewBox="0 0 20 20" version="1.1" xmlns="http://www.w3.org/2000/svg" xmlns:xlink="http://www.w3.org/1999/xlink">
    <title>Icons / icon-sofa-m-white</title>
    <g id="Icons-/-icon-sofa-m-white" stroke="none" stroke-width="1" fill="none" fill-rule="evenodd" fill-opacity="0.75">
        <path d="M18.898947,7.49400319 C18.4800243,7.137544 17.9755691,6.9205187 17.4440967,6.82172161 C17.1686005,4.6726742 15.3477085,3 13.125018,3 L6.87498198,3 C4.65206966,3 2.83108892,4.6730291 2.55581459,6.82238706 C2.02487451,6.92118415 1.52006442,7.13785455 1.10105296,7.49400319 C0.401621035,8.08909262 0,8.95701639 0,9.87498198 C0,10.6672219 0.300916324,11.4228178 0.847161746,12.0020695 C1.1071751,12.277965 1.24998059,12.6978637 1.24998059,13.1849285 L1.24998059,16.1249737 C1.24998059,16.4704307 1.5295138,16.749964 1.87497089,16.749964 L3.74998614,16.749964 L3.74998614,17.9999445 L4.99996673,17.9999445 L4.99996673,16.749964 L14.9999889,16.749964 L14.9999889,17.9999445 L16.2499695,17.9999445 L16.2499695,16.749964 L18.1249848,16.749964 C18.4704418,16.749964 18.749975,16.4704307 18.749975,16.1249737 L18.749975,13.1849285 C18.749975,12.6978637 18.8927805,12.277965 19.1527939,12.0020695 C19.6990393,11.4228622 19.9999556,10.6672219 19.9999556,9.87498198 C19.9999556,8.95701639 19.5984233,8.08909262 18.898947,7.49400319 Z M6.87502634,4.24998059 L13.125018,4.24998059 C14.6628721,4.24998059 15.9375187,5.36900069 16.1953139,6.8341877 C14.7927235,7.14743702 13.7500083,8.47563013 13.7500083,10.0086486 L13.7500083,11.7499972 L6.24999168,11.7499972 L6.24999168,10.0086486 C6.24999168,8.47589631 5.20749829,7.14792502 3.8046861,6.83436515 C4.06243692,5.36922251 5.33708351,4.24998059 6.87502634,4.24998059 Z M18.2434348,11.1451479 C17.764311,11.6535514 17.5000388,12.3780486 17.5000388,13.1849285 L17.5000388,15.4999834 L2.50000555,15.4999834 L2.50000555,13.1849285 C2.50000555,12.3780486 2.23573331,11.6535514 1.75660958,11.1451479 C1.43005126,10.7984486 1.25002495,10.3474069 1.25002495,9.87502634 C1.25002495,9.32447768 1.49109517,8.80325316 1.91103826,8.44617289 C2.3376802,8.08363593 2.88454671,7.93714828 3.44423421,8.02622981 C4.33105676,8.17027747 5.00001109,9.02294027 5.00001109,10.0086486 L5.00001109,11.7499972 L5.00001109,12.9999778 L15.0000333,12.9999778 L15.0000333,11.7499972 L15.0000333,10.0086486 C15.0000333,9.02294027 15.6689876,8.17027747 16.5551891,8.02622981 C17.1191354,7.93346613 17.6617431,8.08239376 18.0890061,8.44617289 C18.5089492,8.8032088 18.750025,9.32447768 18.750025,9.87502634 C18.750025,10.3474069 18.5699487,10.7984486 18.2434348,11.1451479 Z" id="Fill" fill="#FFFFFF"></path>
    </g>
</svg>