<?xml version="1.0" encoding="UTF-8"?>
<svg width="20px" height="20px" viewBox="0 0 20 20" version="1.1" xmlns="http://www.w3.org/2000/svg" xmlns:xlink="http://www.w3.org/1999/xlink">
    <title>Icons / icon-mic-m-white</title>
    <g id="Icons-/-icon-mic-m-white" stroke="none" stroke-width="1" fill="none" fill-rule="evenodd" fill-opacity="0.75">
        <path d="M1.55525874,19.4582411 C2.22185908,20.1246087 3.28279759,20.1835005 4.0190544,19.5950045 L15.1834148,10.67124 L15.1834148,10.67124 C16.40974,10.5488094 17.5557825,10.0073189 18.4323353,9.13102401 C19.4432713,8.12044103 19.9999467,6.77678888 19.9999467,5.34762808 C19.9999467,3.91856369 19.4431749,2.57500794 18.4323353,1.56456956 C16.3455138,-0.521523188 12.950011,-0.521523188 10.8632377,1.56456956 C9.98644381,2.44100905 9.44471596,3.58694054 9.32238721,4.81317496 L0.39585377,16.0185231 C-0.18022549,16.741667 -0.121447588,17.7820929 0.532412924,18.4357525 L0.532412924,18.4357525 L0.532412924,18.4357525 L1.55525874,19.4582411 Z M5.88517586,16.2519562 L3.75524759,14.1227718 L7.6851492,9.18963647 L10.8112106,12.314558 L5.88517586,16.2519562 Z M11.947947,11.4059684 L8.59203103,8.05122434 L10.087412,6.17408309 L13.8223206,9.90773554 L11.947947,11.4059684 Z M11.8861317,2.58701 C13.4089969,1.06467659 15.886769,1.06477299 17.4095377,2.58701 C18.1471748,3.32438948 18.5534586,4.30479861 18.5534586,5.34762808 C18.5534586,6.39055395 18.147223,7.37105948 17.4095377,8.10848717 C16.8025229,8.71529005 16.0185002,9.10138037 15.1756999,9.21556863 L10.7786153,4.82001951 C10.8928917,3.97760996 11.2791169,3.19386107 11.8861317,2.58701 Z M2.84836576,15.2611839 L4.74843942,17.160594 L2.83361109,18.6911216 L1.32077521,17.178814 L2.84836576,15.2611839 Z" id="Fill" fill="#FFFFFF"></path>
    </g>
</svg>