<?xml version="1.0" encoding="UTF-8"?>
<svg width="20px" height="20px" viewBox="0 0 20 20" version="1.1" xmlns="http://www.w3.org/2000/svg" xmlns:xlink="http://www.w3.org/1999/xlink">
    <title>Icons/icon-options-m-white</title>
    <g id="Icons/icon-options-m-white" stroke="none" stroke-width="1" fill="none" fill-rule="evenodd">
        <path d="M3,8 C4.1045695,8 5,8.8954305 5,10 C5,11.1045695 4.1045695,12 3,12 C1.8954305,12 1,11.1045695 1,10 C1,8.8954305 1.8954305,8 3,8 Z M10,8 C11.1045695,8 12,8.8954305 12,10 C12,11.1045695 11.1045695,12 10,12 C8.8954305,12 8,11.1045695 8,10 C8,8.8954305 8.8954305,8 10,8 Z M17,8 C18.1045695,8 19,8.8954305 19,10 C19,11.1045695 18.1045695,12 17,12 C15.8954305,12 15,11.1045695 15,10 C15,8.8954305 15.8954305,8 17,8 Z" id="Fill" fill="#FFFFFF"></path>
    </g>
</svg>