<?xml version="1.0" encoding="UTF-8"?>
<svg width="20px" height="20px" viewBox="0 0 20 20" version="1.1" xmlns="http://www.w3.org/2000/svg" xmlns:xlink="http://www.w3.org/1999/xlink">
    <title>Icons/icon-share-m-white</title>
    <g id="Icons/icon-share-m-white" stroke="none" stroke-width="1" fill="none" fill-rule="evenodd">
        <path d="M14.5,1 C16.4329966,1 18,2.56700338 18,4.5 C18,6.43299662 16.4329966,8 14.5,8 C13.5874458,8 12.7564611,7.6507591 12.1334118,7.07864307 L6.93705941,9.83580101 C6.97837059,10.0508504 7,10.2728993 7,10.5 C7,10.7144253 6.98071766,10.924347 6.94379235,11.1281256 L11.8549033,13.207873 C12.49664,12.4679568 13.4436714,12 14.5,12 C16.4329966,12 18,13.5670034 18,15.5 C18,17.4329966 16.4329966,19 14.5,19 C12.5670034,19 11,17.4329966 11,15.5 C11,15.14818 11.0519097,14.8084841 11.1484879,14.4881537 L6.39201718,12.4719527 C5.76176028,13.3944888 4.7015925,14 3.5,14 C1.56700338,14 0,12.4329966 0,10.5 C0,8.56700338 1.56700338,7 3.5,7 C4.58783971,7 5.55976413,7.49629232 6.20170707,8.27481076 L11.1862505,5.62948264 C11.0655052,5.27513124 11,4.8952154 11,4.5 C11,2.56700338 12.5670034,1 14.5,1 Z M14.5,13.5217391 C13.4074367,13.5217391 12.5217391,14.4074367 12.5217391,15.5 C12.5217391,16.5925633 13.4074367,17.4782609 14.5,17.4782609 C15.5925633,17.4782609 16.4782609,16.5925633 16.4782609,15.5 C16.4782609,14.4074367 15.5925633,13.5217391 14.5,13.5217391 Z M3.5,8.52173913 C2.40743669,8.52173913 1.52173913,9.40743669 1.52173913,10.5 C1.52173913,11.5925633 2.40743669,12.4782609 3.5,12.4782609 C4.59256331,12.4782609 5.47826087,11.5925633 5.47826087,10.5 C5.47826087,9.40743669 4.59256331,8.52173913 3.5,8.52173913 Z M14.5,2.52173913 C13.4074367,2.52173913 12.5217391,3.40743669 12.5217391,4.5 C12.5217391,5.59256331 13.4074367,6.47826087 14.5,6.47826087 C15.5925633,6.47826087 16.4782609,5.59256331 16.4782609,4.5 C16.4782609,3.40743669 15.5925633,2.52173913 14.5,2.52173913 Z" id="Fill" fill="#FFFFFF"></path>
    </g>
</svg>