<?xml version="1.0" encoding="UTF-8"?>
<svg width="20px" height="20px" viewBox="0 0 20 20" version="1.1" xmlns="http://www.w3.org/2000/svg" xmlns:xlink="http://www.w3.org/1999/xlink">
    <title>Icons/icon-micmute-m</title>
    <g id="Icons/icon-micmute-m" stroke="none" stroke-width="1" fill="none" fill-rule="evenodd">
        <path d="M4.87512834,10.125 C5.2893419,10.125 5.62512834,10.4607864 5.62512834,10.875 C5.62512834,13.4710364 7.58301972,15.25 10.1768525,15.25 C12.4074391,15.25 14.1677297,13.9344077 14.6170139,11.9149494 L15.9636076,12.6920588 C15.2757115,14.9395594 13.3154694,16.4691584 10.8758816,16.7151317 L10.875,18.625 L13.2501283,18.625 C13.6643419,18.625 14.0001283,18.9607864 14.0001283,19.375 C14.0001283,19.7546958 13.7179745,20.068491 13.3518989,20.1181534 L13.2501283,20.125 L7.00012834,20.125 C6.58591478,20.125 6.25012834,19.7892136 6.25012834,19.375 C6.25012834,18.9953042 6.53228222,18.681509 6.89835778,18.6318466 L7.00012834,18.625 L9.375,18.625 L9.3752765,16.7040048 C6.37512949,16.3553428 4.12512834,14.055677 4.12512834,10.875 C4.12512834,10.4607864 4.46091478,10.125 4.87512834,10.125 Z M6.625,7.3 L8.125,8.166 L8.12512834,10.5 C8.12512834,11.5543618 8.94100613,12.4181651 9.975866,12.4945143 L10.1251283,12.5 C11.2296978,12.5 12.1251283,11.6045695 12.1251283,10.5 L12.1251283,10.5 L12.125,10.476 L13.5355908,11.2900537 C13.1912883,12.7823283 11.8927744,13.9096223 10.3171635,13.9948211 L10.1251283,14 C8.19213172,14 6.62512834,12.4329966 6.62512834,10.5 L6.62512834,10.5 L6.625,7.3 Z M3.03047408,2.67926983 L3.12223254,2.72381764 L17.9972325,11.2238176 C18.3568706,11.4293251 18.4818182,11.8874661 18.2763107,12.2471042 C18.0879288,12.5767724 17.6872647,12.7092354 17.3447826,12.5707302 L17.2530241,12.5261824 L2.37802414,4.02618236 C2.01838605,3.82067488 1.89343851,3.36253388 2.09894598,3.0028958 C2.28732784,2.67322755 2.68799203,2.54076455 3.03047408,2.67926983 Z M10.1251283,0 C12.058125,0 13.6251283,1.56700338 13.6251283,3.5 L13.6251283,3.5 L13.625,7.878 L12.125,7.011 L12.1251283,3.5 C12.1251283,2.4456382 11.3092505,1.58183488 10.2743907,1.50548574 L10.1251283,1.5 C9.02055884,1.5 8.12512834,2.3954305 8.12512834,3.5 L8.12512834,3.5 L8.125,4.702 L6.625,3.836 L6.62512834,3.5 C6.62512834,1.6314366 8.08940594,0.104873551 9.93309314,0.00517886273 Z" id="Fill" fill="#444444" transform="translate(10.187628, 10.062500) scale(-1, 1) translate(-10.187628, -10.062500) "></path>
    </g>
</svg>